<svg t="1490691480274" class="icon" style="" viewBox="0 0 64 64" version="1.1" xmlns="http://www.w3.org/2000/svg"
     p-id="1428" xmlns:xlink="http://www.w3.org/1999/xlink" width="64" height="64">
    <defs>
        <style type="text/css"></style>
    </defs>
    <path d="M584.33598 542.194696l-56.478316 0 0-43.918255 56.478316 0c8.559956 0 15.498996-7.377014 15.498996-16.46909 0-9.097192-6.938016-16.470113-15.498996-16.470113l-15.226796 0 28.607548-55.269791c4.121877-6.572696 1.655709-14.96176-5.507434-18.74083-7.167237-3.78521-16.317641-1.523703-20.445658 5.048993l-35.698037 68.962651-48.137347 0-35.69292-68.962651c-4.123924-6.572696-13.276375-8.834202-20.443611-5.048993-7.169283 3.77907-9.634428 12.169157-5.505387 18.74083l28.604478 55.269791-15.225773 0c-8.563026 0-15.498996 7.372921-15.498996 16.470113 0 9.092076 6.935969 16.46909 15.498996 16.46909l56.479339 0 0 43.918255-56.479339 0c-8.563026 0-15.498996 7.374968-15.498996 16.468067 0 9.097192 6.935969 16.46909 15.498996 16.46909l56.479339 0 0 43.932582c0 9.606799 7.099698 17.397229 15.85306 17.397229 8.757454 0 15.858176-7.79043 15.858176-17.397229l0-43.932582 56.478316 0c8.559956 0 15.498996-7.371898 15.498996-16.46909C599.835999 549.569664 592.89696 542.194696 584.33598 542.194696z"
          p-id="1429"></path>
    <path d="M336.33363 432.402127l10.979052 0 0 164.686806-10.979052 0 0-164.686806Z" p-id="1430"></path>
    <path d="M682.180426 432.402127l10.978029 0 0 164.686806-10.978029 0 0-164.686806Z" p-id="1431"></path>
    <path d="M511.999488 64.280002c-247.26864 0-447.719998 200.451358-447.719998 447.722044 0 247.266593 200.452381 447.717951 447.719998 447.717951 247.267617 0 447.719998-200.452381 447.719998-447.717951C959.719486 264.730337 759.267105 64.280002 511.999488 64.280002zM775.500834 421.421029l0 41.910529c-23.356964 3.931542-41.170678 24.189935-41.170678 48.669466 0 24.473391 17.813714 44.7369 41.170678 48.666396l0 41.912575 0 82.34545c0.001023 9.097192-7.369851 16.467043-16.467043 16.467043L264.967232 701.392488c-9.094122 0-16.46909-7.369851-16.46909-16.467043l0-82.34545 0-41.912575c23.357987-3.929496 41.172725-24.193005 41.172725-48.666396 0-24.479531-17.814738-44.737924-41.172725-48.669466L248.498142 421.421029l0-82.34238c0-9.093099 7.374968-16.471137 16.46909-16.471137l494.066559 0c9.097192 0 16.467043 7.378038 16.467043 16.471137L775.500834 421.421029z"
          p-id="1432"></path>
</svg>