<?xml version="1.0" encoding="utf-8"?>
<!-- Generator: Adobe Illustrator 16.0.0, SVG Export Plug-In . SVG Version: 6.00 Build 0)  -->
<!DOCTYPE svg PUBLIC "-//W3C//DTD SVG 1.1//EN" "http://www.w3.org/Graphics/SVG/1.1/DTD/svg11.dtd">
<svg version="1.1" id="Layer_1" xmlns="http://www.w3.org/2000/svg" xmlns:xlink="http://www.w3.org/1999/xlink" x="0px" y="0px"
	 width="563.164px" height="277.582px" viewBox="0 0 563.164 277.582" enable-background="new 0 0 563.164 277.582"
	 xml:space="preserve">
<path fill="#FFFFFF" d="M260.18,56.877C276.559,43.804,270.595,0,270.595,0c-26.438,24.835-47.264,29.641-125.37,52.071
	c-78.105,22.429-33.644,68.998-33.644,68.998s-9.81-15.743,1.205-32.949c11.178-17.474,58.718-14.881,67.245-14.484
	C180.031,73.635,235.834,76.305,260.18,56.877z"/>
<path fill="#FFFFFF" d="M222.53,80.507c0,0-6.41,21.627-27.233,32.042c0,0-50.071,1.203-67.693-22.828c0,0,2.332-8.551,49.485-4.979
	c1.45,0.111,2.916,0.166,4.371,0.15C225.242,84.384,222.53,80.507,222.53,80.507z"/>
<path fill="#FFFFFF" d="M175.083,124.167c0,0-33.463-0.561-55.491-30.519c0,0-11.187,19.184,6.308,32.485
	c5.98,4.55,13.431,6.697,20.947,6.584C154.923,132.597,166.478,131.03,175.083,124.167z"/>
<path fill="#FFFFFF" d="M160.024,253.435c9.952-0.146,20.049-0.219,30.293-0.219l-1.536-21.293c-14.635,0-29.271,0.146-43.903,0.438
	c0.878-1.756,1.829-3.512,2.854-5.268c8.924-0.145,18.219-0.219,27.878-0.219l-1.976-18.439h-16.025
	c1.022-1.609,2.049-3.438,3.074-5.488l-9.439-3.072c7.607-1.899,14.488-4.315,20.635-7.244c11.268-4.83,16.902-11.34,16.902-19.537
	v-5.049c0-9.363-6.074-16.756-18.22-22.17c-0.109-0.043-0.221-0.08-0.331-0.123c-2.518-0.504-4.991-1.387-7.305-2.582
	c-8.899-2.875-18.059-4.834-27.486-5.856c-4.098-0.293-8.417-0.512-12.951-0.659c0.065-0.02,0.131-0.039,0.196-0.058
	c-0.631-0.025-1.267-0.064-1.894-0.126c-2.607,0.066-5.209-0.061-7.818-0.264c-0.483,0.153-1.021,0.239-1.612,0.239
	c-0.116,0-0.227-0.01-0.339-0.017c-4.895-0.139-10-0.213-15.314-0.213h-6.365c2.339-8.924,3.875-18.731,4.609-29.415v-5.488
	c0-8.634-3.368-16.169-10.098-22.61c-6.881-5.561-15.441-8.342-25.684-8.342c-19.172,0-38.561,2.929-58.17,8.781l7.902,22.829
	c5.121-1.609,10.461-2.998,16.024-4.17l-6.366,7.024c4.391,3.219,8.561,6.585,12.512,10.097c-8.341,2.49-16.978,5.269-25.902,8.342
	l5.708,18.878C3.292,151.946,0,162.263,0,173.093c0,10.975,7.902,19.463,23.707,25.463c1.316,0.295,2.635,0.586,3.951,0.879
	c0.583,4.391,1.171,8.926,1.756,13.609c-6.88,0.438-13.756,0.879-20.634,1.315l1.756,18.438c6.878-0.582,13.974-1.098,21.293-1.537
	c0.292,1.613,0.513,3.222,0.658,4.83c-10.831,0.586-21.658,1.244-32.487,1.978l1.756,21.072c10.537-0.586,21.146-1.173,31.829-1.757
	c-1.464,3.072-3,6.291-4.609,9.658l29.634,9.658c2.778-6.879,6.071-13.828,9.879-20.854c15.219-0.584,30.437-1.098,45.658-1.537
	c11.414,7.758,21.293,15.512,29.635,23.27l20.194-20.195C162.951,256.212,161.635,254.896,160.024,253.435z M51.146,94.288
	c4.534,0,7.975,0.805,10.316,2.415c1.9,1.317,2.998,4.098,3.293,8.341c-6.731,1.756-13.756,3.659-21.073,5.708l7.024-6.805
	c-2.635-3.366-5.635-6.366-9-9C44.78,94.653,47.927,94.434,51.146,94.288z M20.195,144.117l-3.513-1.756
	c15.22-4.829,30.073-9.512,44.562-14.049c-0.439,2.051-1.025,4.171-1.756,6.366l12.951,2.195
	C54.293,137.897,36.878,140.312,20.195,144.117z M69.365,163.435c-6.585,0.295-13.246,0.658-19.975,1.098
	c6.585-2.634,13.023-4.754,19.316-6.367C68.852,159.921,69.07,161.677,69.365,163.435z M47.634,182.533
	c-0.146,0-0.366-0.074-0.658-0.222c7.902-0.582,16.024-1.021,24.366-1.315c0.144,1.463,0.363,3.071,0.658,4.83
	C62.78,185.386,54.658,184.289,47.634,182.533z M109.098,233.021c-14.344,0.438-28.612,0.953-42.805,1.535
	c-0.146-1.756-0.366-3.512-0.659-5.268c14.927-0.732,30.366-1.242,46.317-1.537C111.217,229.365,110.269,231.121,109.098,233.021z
	 M121.391,209.093c-19.174,0.439-38.562,1.098-58.172,1.977c-0.438-2.195-0.805-4.535-1.097-7.025
	c6.146,0.439,13.024,0.658,20.634,0.658h19.098c7.607,0,15-0.293,22.171-0.877C123.291,205.582,122.412,207.337,121.391,209.093z
	 M143.342,180.556c-7.902,3.369-21,5.27-39.293,5.707c-0.295-2.195-0.515-4.314-0.658-6.365c9.512-0.293,19.461-0.439,29.854-0.439
	l-1.537-17.56c-10.098,0-20.195,0.146-30.293,0.438c-0.295-2.487-0.585-5.049-0.877-7.684c19.17,0.438,32.561,1.756,40.17,3.951
	c8.486,2.49,12.732,6.223,12.732,11.195C153.439,174.19,150.071,177.778,143.342,180.556z"/>
<path fill="#FFFFFF" d="M248.966,116.592l25.011,23.713c-10.006,10.868-20.009,21.86-30.013,32.976
	c3.705-1.111,7.719-2.285,12.041-3.519c15.933-4.817,33.718-7.226,53.354-7.226c14.08,0,25.565,3.271,34.459,9.818
	c8.397,7.163,12.598,15.438,12.598,24.824v3.705c0,9.386-1.605,21.552-4.816,36.494c-3.828,15.438-7.967,27.791-12.414,37.054
	l-33.346-6.483c5.93-13.586,10.312-26.307,13.153-38.164c2.594-10.867,3.892-19.822,3.892-26.861c0-2.842-1.605-5.002-4.816-6.484
	c-3.829-1.854-8.953-2.777-15.377-2.777c-3.582,0-7.473,0.184-11.67,0.555c-9.881,23.837-17.541,49.587-22.975,77.252l-33.346-7.409
	c3.952-20.997,9.448-41.251,16.488-60.765c-5.435,2.223-10.931,4.692-16.488,7.41l-6.669-19.451c-0.988,1.11-1.915,2.16-2.778,3.148
	l-25.937-23.714C216.484,150.679,233.033,132.647,248.966,116.592z M295.65,110.849c27.418,4.199,54.281,10.127,80.588,17.785
	l-5.928,33.161c-26.926-7.287-53.851-13.4-80.773-18.34L295.65,110.849z"/>
<path fill="#FFFFFF" d="M486.653,119l2.224,19.081l20.191-2.038c0.123,1.235,0.247,2.408,0.371,3.52
	c8.397-2.841,16.61-4.261,24.64-4.261c8.15,0,14.943,1.544,20.377,4.631c5.806,4.074,8.708,12.721,8.708,25.936
	c0,25.444-3.271,56.752-9.818,93.926l-27.232-5.188c5.681-28.775,9.139-55.886,10.375-81.328c0-8.521-3.273-12.781-9.818-12.781
	c-4.939,0.617-9.818,2.223-14.636,4.815c0.247,2.224,0.433,4.386,0.556,6.483c6.916,0.371,13.646,1.051,20.193,2.039l-2.224,23.713
	c-5.188-0.617-10.312-1.174-15.378-1.668c0.247,2.102,0.434,4.076,0.558,5.93c4.694,0.37,9.324,0.863,13.894,1.482l-2.223,24.455
	c-3.088-0.371-6.176-0.682-9.263-0.927c0.862,8.769,1.729,17.536,2.594,26.306l-26.492,2.779
	c-4.323-41.128-8.027-77.869-11.115-110.229h-4.262c0,10.498-0.122,20.873-0.37,31.123c-0.494,13.586-1.05,25.195-1.667,34.828
	c3.087-0.246,6.175-0.555,9.262-0.926l2.781,26.862c-10.376,1.358-20.688,2.47-30.938,3.334c10.128,4.57,20.688,7.103,31.679,7.595
	l-5.743,23.715c-15.561-0.123-29.456-4.262-41.683-12.412l5.741-17.971c-5.557,0.37-11.114,0.741-16.672,1.112l8.706,8.521
	c-8.521,8.275-17.104,16.982-25.75,26.123l-20.192-18.711c5.062-5.312,9.881-10.127,14.449-14.451
	c-3.457,0.248-6.731,0.433-9.818,0.557l-3.148-26.863c3.828-0.121,7.595-0.309,11.302-0.554c-1.73-22.479-3.46-43.537-5.188-63.175
	c-2.469,0.494-5.002,0.988-7.595,1.482l-2.778-26.678c2.716-0.618,5.434-1.174,8.151-1.667c-0.247-3.211-0.494-6.299-0.742-9.263
	l27.975-3.149c0.247,2.717,0.433,5.249,0.557,7.595c8.027-0.988,16.056-1.791,24.083-2.409V108.44h27.975v10.744
	C481.836,119.062,484.305,119,486.653,119z M430.146,156.978c6.919,0.247,13.771,0.74,20.565,1.48
	c0.123-3.705,0.185-7.472,0.185-11.299c-7.162,0.616-14.266,1.481-21.305,2.592C429.84,152.223,430.024,154.63,430.146,156.978z
	 M432.742,186.805c5.805-0.618,11.608-0.989,17.414-1.112c0.124-0.988,0.186-1.977,0.186-2.965v-2.594
	c-6.175-0.617-12.289-1.11-18.34-1.481C432.248,181.496,432.495,184.212,432.742,186.805z M435.336,215.707
	c4.322-0.371,8.646-0.742,12.968-1.113c0.247-2.471,0.433-4.816,0.558-7.041c-4.942,0.125-9.695,0.433-14.267,0.926
	C434.842,211.074,435.089,213.482,435.336,215.707z"/>
</svg>
